<svg width="387" height="440" viewBox="0 0 387 440" fill="none" xmlns="http://www.w3.org/2000/svg">
<path d="M386.916 0.328003L351.667 395.207L193.221 439.133L35.2118 395.269L3.05176e-05 0.328003H386.916Z" fill="#264DE4"/>
<path d="M321.49 370.062L351.613 32.6203H193.458V405.558L321.49 370.062Z" fill="#2965F1"/>
<path d="M80.7222 179.098L85.0635 227.535H193.458V179.098H80.7222Z" fill="#EBEBEB"/>
<path d="M193.458 81.0586H193.291H71.999L76.4022 129.497H193.458V81.0586Z" fill="#EBEBEB"/>
<path d="M193.458 355.292V304.897L193.246 304.953L139.3 290.387L135.852 251.755H109.638H87.2278L94.0139 327.81L193.235 355.354L193.458 355.292Z" fill="#EBEBEB"/>
<path d="M252.937 227.535L247.314 290.356L193.291 304.937V355.331L292.591 327.81L293.319 319.626L304.702 192.105L305.884 179.098L314.628 81.0586H193.291V129.497H261.545L257.137 179.098H193.291V227.535H252.937Z" fill="white"/>
</svg>
