<svg xmlns="http://www.w3.org/2000/svg" xmlns:xlink="http://www.w3.org/1999/xlink" width="512" height="512" viewBox="0 0 512 512">
  <defs>
    <clipPath id="clip-pen-logo-mesa">
      <rect width="512" height="512"/>
    </clipPath>
  </defs>
  <g id="pen-logo-mesa" clip-path="url(#clip-pen-logo-mesa)">
    <path id="pen-svgrepo-com" d="M80.384,0,92.723,204.732,198.156,335.91,312.4,269.949l-60.884-156.9ZM187.55,185.62a24.863,24.863,0,1,1,9.1-33.964A24.864,24.864,0,0,1,187.55,185.62Zm43.624,233.2L200.31,365.36l136.518-78.821L367.691,340Z" transform="translate(186.133 536.05) rotate(-110)"/>
    <path id="Trazado_1" data-name="Trazado 1" d="M574.342,749.43c-85.7-36.6-84.891-84.891-83.565-100.808.546-6.558,28.733-29.661,35.814-72.953,10.055-61.485-41.877-80.461-35.814-95.5,11-27.292,48.607-20.06,62.342-55.71,7.694-19.972-29.969-86.877,9.285-99.482,1.952-.627,46.425,129.99-9.285,155.192S632.7,602.2,562.4,607.5,574.342,749.43,574.342,749.43Z" transform="translate(-571.088 -141.493) rotate(-13)" fill="#b2b2b2"/>
  </g>
</svg>
