<svg width="512" height="512" viewBox="0 0 512 512" fill="none" xmlns="http://www.w3.org/2000/svg">
<mask id="path-1-inside-1_3_14" fill="white">
<path d="M19 119C19 63.7715 63.7715 19 119 19H394C449.228 19 494 63.7715 494 119V394C494 449.228 449.228 494 394 494H24C21.2386 494 19 491.761 19 489V119Z"/>
</mask>
<path d="M19 119C19 63.7715 63.7715 19 119 19H394C449.228 19 494 63.7715 494 119V394C494 449.228 449.228 494 394 494H24C21.2386 494 19 491.761 19 489V119Z" fill="#0097A7" stroke="#F5F5F5" stroke-width="50" mask="url(#path-1-inside-1_3_14)"/>
<g filter="url(#filter0_d_3_14)">
<path d="M345.584 400.896H378.628V409.839V425.906C378.628 425.906 380.295 433.334 386.207 433.334H393.483C399.394 433.334 401.062 425.906 401.062 425.906V412.87V409.839V400.896C420.161 399.077 420.312 384.07 420.312 384.07V317.678C420.312 315.253 419.706 304.794 419.706 304.794L415.007 251.893C414.249 236.735 402.881 233.248 402.881 233.248C378.628 220.971 355.436 219 355.436 219H342.704H333.609H320.725C320.725 219 297.533 220.971 273.432 233.4C273.432 233.4 261.912 236.886 261.154 252.044L256.606 304.946C256.606 304.946 256 315.253 256 317.83V384.222C256 384.222 256.303 399.228 275.251 401.047V409.99V413.022V426.058C275.251 426.058 276.918 433.485 282.83 433.485H289.954C295.865 433.485 297.533 426.058 297.533 426.058V409.99V401.047H330.577H345.584V400.896Z" fill="white"/>
<path d="M279.192 367.548C285.255 367.548 290.409 362.698 290.409 356.634C290.409 350.42 285.255 345.569 279.192 345.569C272.977 345.569 267.823 350.42 267.823 356.634C267.823 362.698 272.977 367.548 279.192 367.548Z" fill="#0097A7"/>
<path d="M397.121 367.548C390.906 367.548 385.904 362.698 385.904 356.634C385.904 350.42 391.058 345.569 397.121 345.569C403.184 345.569 408.489 350.42 408.489 356.634C408.338 362.698 403.184 367.548 397.121 367.548Z" fill="#0097A7"/>
<path d="M347.938 317.78H398.699C408.245 317.78 409.154 305.822 409.154 305.822C409.154 305.822 406.882 280.411 405.669 267.954C404.306 255.498 394.153 256.162 394.153 256.162H347.635H329.3H282.782C282.782 256.162 272.63 255.498 271.266 267.954C270.054 280.245 267.781 305.822 267.781 305.822C267.781 305.822 268.69 317.78 278.236 317.78H328.846H347.938Z" fill="#0097A7"/>
</g>
<g filter="url(#filter1_d_3_14)">
<path d="M102.908 134.832C102.628 135.112 102.376 135.112 102.152 134.832L97.532 130.296C97.42 130.184 97.364 130.044 97.364 129.876V111.648C97.364 111.48 97.42 111.34 97.532 111.228L102.152 106.608C102.376 106.44 102.628 106.44 102.908 106.608L104.504 108.12C104.616 108.232 104.672 108.372 104.672 108.54V132.9C104.672 133.068 104.616 133.208 104.504 133.32L102.908 134.832ZM102.908 105.936C102.628 106.216 102.376 106.216 102.152 105.936L97.532 101.316C97.42 101.204 97.364 101.064 97.364 100.896V86.112C97.364 85.72 97.56 85.524 97.952 85.524H104.084C104.476 85.524 104.672 85.72 104.672 86.112V103.92C104.672 104.088 104.616 104.228 104.504 104.34L102.908 105.936ZM117.776 79.224C118 79.504 118 79.756 117.776 79.98L113.24 84.6C113.128 84.712 112.988 84.768 112.82 84.768H89.3C89.132 84.768 88.992 84.712 88.88 84.6L84.344 79.98C84.064 79.756 84.064 79.504 84.344 79.224L85.772 77.712C85.884 77.6 86.024 77.544 86.192 77.544H116.096L117.776 79.224ZM146.72 128.532V111.564C146.72 111.396 146.776 111.256 146.888 111.144L151.424 106.524C151.704 106.356 151.984 106.356 152.264 106.524L153.776 108.12C153.888 108.232 153.944 108.372 153.944 108.54V134.412C153.944 134.692 153.832 134.888 153.608 135C153.384 135.112 153.16 135.056 152.936 134.832L146.72 128.532ZM153.944 103.92C153.944 104.088 153.888 104.228 153.776 104.34L152.264 105.936C151.984 106.216 151.704 106.216 151.424 105.936L146.888 101.316C146.776 101.204 146.72 101.064 146.72 100.896V83.928L152.936 77.628C153.16 77.404 153.384 77.348 153.608 77.46C153.832 77.572 153.944 77.768 153.944 78.048V103.92ZM129.584 100.896C129.584 101.064 129.528 101.204 129.416 101.316L124.796 105.936C124.516 106.216 124.264 106.216 124.04 105.936L122.528 104.34C122.416 104.228 122.36 104.088 122.36 103.92V78.048C122.36 77.768 122.472 77.572 122.696 77.46C122.92 77.348 123.144 77.404 123.368 77.628L129.584 83.928V100.896ZM146.972 109.632C146.86 109.744 146.72 109.8 146.552 109.8H129.752C129.584 109.8 129.444 109.744 129.332 109.632L126.308 106.608C126.028 106.384 126.028 106.132 126.308 105.852L129.332 102.828C129.444 102.716 129.584 102.66 129.752 102.66H146.552C146.72 102.66 146.86 102.716 146.972 102.828L149.996 105.852C150.276 106.132 150.276 106.384 149.996 106.608L146.972 109.632ZM123.368 134.832C123.144 135.056 122.92 135.112 122.696 135C122.472 134.888 122.36 134.692 122.36 134.412V108.54C122.36 108.372 122.416 108.232 122.528 108.12L124.04 106.524C124.264 106.356 124.516 106.356 124.796 106.524L129.416 111.144C129.528 111.256 129.584 111.396 129.584 111.564V128.28C129.584 128.448 129.528 128.588 129.416 128.7L123.368 134.832ZM161.862 135C161.582 135 161.386 134.888 161.274 134.664C161.162 134.44 161.218 134.216 161.442 133.992L167.49 127.944C167.602 127.832 167.742 127.776 167.91 127.776H183.114C183.282 127.776 183.422 127.832 183.534 127.944L189.582 133.992C189.806 134.216 189.862 134.44 189.75 134.664C189.638 134.888 189.442 135 189.162 135H161.862ZM191.346 132.9C191.346 133.18 191.234 133.376 191.01 133.488C190.786 133.544 190.562 133.488 190.338 133.32L184.206 127.272C184.094 127.16 184.038 127.02 184.038 126.852V111.648C184.038 111.48 184.094 111.34 184.206 111.228L188.826 106.608C189.05 106.384 189.302 106.384 189.582 106.608L191.178 108.12C191.29 108.232 191.346 108.372 191.346 108.54V132.9ZM189.582 105.936C189.302 106.216 189.05 106.216 188.826 105.936L184.206 101.316C184.094 101.204 184.038 101.064 184.038 100.896V84.18C184.038 84.012 184.094 83.872 184.206 83.76L190.338 77.712C190.562 77.488 190.786 77.432 191.01 77.544C191.234 77.656 191.346 77.852 191.346 78.132V103.92C191.346 104.088 191.29 104.228 191.178 104.34L189.582 105.936ZM162.198 105.936C161.918 106.216 161.666 106.216 161.442 105.936L159.846 104.34C159.734 104.228 159.678 104.088 159.678 103.92V78.132C159.678 77.852 159.79 77.656 160.014 77.544C160.238 77.432 160.462 77.488 160.686 77.712L166.818 83.76C166.93 83.872 166.986 84.012 166.986 84.18V100.896C166.986 101.064 166.93 101.204 166.818 101.316L162.198 105.936ZM166.986 126.852C166.986 127.02 166.93 127.16 166.818 127.272L160.686 133.32C160.462 133.488 160.238 133.544 160.014 133.488C159.79 133.376 159.678 133.18 159.678 132.9V108.54C159.678 108.372 159.734 108.232 159.846 108.12L161.442 106.608C161.666 106.44 161.918 106.44 162.198 106.608L166.818 111.228C166.93 111.34 166.986 111.48 166.986 111.648V126.852ZM262.423 105.684C262.143 105.964 261.863 105.964 261.583 105.684L256.963 101.064C256.851 100.952 256.795 100.812 256.795 100.644V82.332C256.795 82.164 256.851 82.024 256.963 81.912L261.583 77.292C261.863 77.012 262.143 77.012 262.423 77.292L263.935 78.804C264.047 78.916 264.103 79.056 264.103 79.224V103.752C264.103 103.92 264.047 104.06 263.935 104.172L262.423 105.684ZM262.423 134.832C262.143 135.112 261.863 135.112 261.583 134.832L256.963 130.212C256.851 130.1 256.795 129.96 256.795 129.792V111.48C256.795 111.312 256.851 111.172 256.963 111.06L261.583 106.44C261.863 106.16 262.143 106.16 262.423 106.44L263.935 107.952C264.047 108.064 264.103 108.204 264.103 108.372V132.9C264.103 133.068 264.047 133.208 263.935 133.32L262.423 134.832ZM304.505 105.684C304.225 105.964 303.945 105.964 303.665 105.684L299.045 101.064C298.933 100.952 298.877 100.812 298.877 100.644V82.332C298.877 82.164 298.933 82.024 299.045 81.912L303.665 77.292C303.945 77.012 304.225 77.012 304.505 77.292L306.017 78.804C306.129 78.916 306.185 79.056 306.185 79.224V103.752C306.185 103.92 306.129 104.06 306.017 104.172L304.505 105.684ZM304.505 134.832C304.225 135.112 303.945 135.112 303.665 134.832L299.045 130.212C298.933 130.1 298.877 129.96 298.877 129.792V111.48C298.877 111.312 298.933 111.172 299.045 111.06L303.665 106.44C303.945 106.16 304.225 106.16 304.505 106.44L306.017 107.952C306.129 108.064 306.185 108.204 306.185 108.372V132.9C306.185 133.068 306.129 133.208 306.017 133.32L304.505 134.832ZM359.439 106.104C359.719 106.384 359.719 106.664 359.439 106.944L356.415 109.968C356.303 110.08 356.163 110.136 355.995 110.136H343.815C343.647 110.136 343.507 110.08 343.395 109.968L340.371 106.944C340.091 106.664 340.091 106.384 340.371 106.104L343.395 103.08C343.507 102.968 343.647 102.912 343.815 102.912H355.995C356.163 102.912 356.303 102.968 356.415 103.08L359.439 106.104ZM425.551 103.752C425.551 103.92 425.495 104.06 425.383 104.172L423.787 105.684C423.507 105.964 423.255 105.964 423.031 105.684L418.411 101.148C418.299 101.036 418.243 100.896 418.243 100.728V85.356C418.243 85.188 418.299 85.048 418.411 84.936L423.031 80.316C423.255 80.092 423.507 80.092 423.787 80.316L425.383 81.912C425.495 82.024 425.551 82.164 425.551 82.332V103.752ZM417.739 84.264C417.627 84.376 417.487 84.432 417.319 84.432H400.435C400.267 84.432 400.127 84.376 400.015 84.264L393.883 78.132C393.659 77.908 393.575 77.684 393.631 77.46C393.743 77.236 393.939 77.124 394.219 77.124H420.343C420.511 77.124 420.651 77.18 420.763 77.292L422.359 78.804C422.639 79.084 422.639 79.364 422.359 79.644L417.739 84.264ZM401.023 126.768C401.023 126.936 400.967 127.076 400.855 127.188L396.235 131.808C395.955 132.088 395.675 132.088 395.395 131.808L393.883 130.296C393.771 130.184 393.715 130.044 393.715 129.876V108.372C393.715 108.204 393.771 108.064 393.883 107.952L395.395 106.44C395.675 106.16 395.955 106.16 396.235 106.44L400.855 111.06C400.967 111.172 401.023 111.312 401.023 111.48V126.768ZM398.839 135C398.671 135 398.531 134.944 398.419 134.832L396.907 133.32C396.627 133.096 396.627 132.844 396.907 132.564L401.527 127.944C401.639 127.832 401.779 127.776 401.947 127.776H418.915C419.139 127.776 419.251 127.832 419.251 127.944L425.383 133.992C425.607 134.216 425.663 134.44 425.551 134.664C425.439 134.888 425.243 135 424.963 135H398.839ZM418.495 109.548C418.383 109.66 418.243 109.716 418.075 109.716H401.191C401.023 109.716 400.883 109.66 400.771 109.548L397.663 106.524C397.383 106.244 397.383 105.964 397.663 105.684L400.771 102.576C400.883 102.464 401.023 102.408 401.191 102.408H418.075C418.243 102.408 418.383 102.464 418.495 102.576L421.603 105.684C421.883 105.964 421.883 106.244 421.603 106.524L418.495 109.548Z" fill="white"/>
</g>
<g filter="url(#filter2_d_3_14)">
<path d="M101.864 237.536C101.411 237.989 100.957 237.989 100.504 237.536L93.704 230.056C93.5227 229.875 93.432 229.648 93.432 229.376L96.016 199.728C96.016 199.547 96.152 199.32 96.424 199.048L104.584 191.568C105.037 191.115 105.491 191.115 105.944 191.568L108.12 194.016C108.301 194.197 108.392 194.424 108.392 194.696L104.856 234.408C104.856 234.68 104.765 234.907 104.584 235.088L101.864 237.536ZM97.784 284.728C97.1493 285.181 96.696 285.181 96.424 284.728L89.488 277.248C89.488 277.157 89.4427 277.067 89.352 276.976C89.352 276.795 89.352 276.659 89.352 276.568L91.936 246.92C91.936 246.648 92.0267 246.421 92.208 246.24L100.368 238.76C101.003 238.307 101.456 238.307 101.728 238.76L104.04 241.208C104.131 241.299 104.176 241.525 104.176 241.888L100.776 281.6C100.776 281.781 100.64 282.008 100.368 282.28L97.784 284.728ZM169.997 237.536C169.543 237.989 169.09 237.989 168.637 237.536L161.837 230.056C161.655 229.875 161.565 229.648 161.565 229.376L164.149 199.728C164.149 199.547 164.285 199.32 164.557 199.048L172.717 191.568C173.17 191.115 173.623 191.115 174.077 191.568L176.253 194.016C176.434 194.197 176.525 194.424 176.525 194.696L172.989 234.408C172.989 234.68 172.898 234.907 172.717 235.088L169.997 237.536ZM165.917 284.728C165.282 285.181 164.829 285.181 164.557 284.728L157.621 277.248C157.621 277.157 157.575 277.067 157.485 276.976C157.485 276.795 157.485 276.659 157.485 276.568L160.069 246.92C160.069 246.648 160.159 246.421 160.341 246.24L168.501 238.76C169.135 238.307 169.589 238.307 169.861 238.76L172.173 241.208C172.263 241.299 172.309 241.525 172.309 241.888L168.909 281.6C168.909 281.781 168.773 282.008 168.501 282.28L165.917 284.728ZM145.248 370.408C145.248 370.68 145.157 370.907 144.976 371.088L142.12 373.536C141.667 373.989 141.259 373.989 140.896 373.536L134.096 366.192C133.915 366.011 133.824 365.784 133.824 365.512L136 340.624C136 340.443 136.136 340.216 136.408 339.944L144.432 332.464C144.976 332.101 145.384 332.101 145.656 332.464L148.104 335.048C148.195 335.139 148.24 335.365 148.24 335.728L145.248 370.408ZM135.32 338.856C135.139 339.037 134.912 339.128 134.64 339.128H107.304C107.032 339.128 106.805 339.037 106.624 338.856L97.648 328.928C97.2853 328.565 97.1947 328.203 97.376 327.84C97.5573 327.477 97.8747 327.296 98.328 327.296H140.624C140.896 327.296 141.123 327.387 141.304 327.568L143.616 330.016C143.979 330.469 143.933 330.923 143.48 331.376L135.32 338.856ZM102.272 407.672C102.272 407.944 102.181 408.171 102 408.352L93.84 415.832C93.3867 416.285 92.9333 416.285 92.48 415.832L90.168 413.384C90.0773 413.293 90.032 413.067 90.032 412.704L93.024 377.888C93.024 377.707 93.16 377.48 93.432 377.208L96.016 374.76C96.6507 374.307 97.104 374.307 97.376 374.76L104.176 382.24C104.357 382.421 104.448 382.648 104.448 382.92L102.272 407.672ZM97.648 421C97.376 421 97.1493 420.909 96.968 420.728L94.656 418.28C94.384 417.827 94.4293 417.419 94.792 417.056L102.952 409.576C103.133 409.395 103.36 409.304 103.632 409.304H131.104C131.467 409.304 131.648 409.395 131.648 409.576L140.76 419.368C141.032 419.731 141.077 420.093 140.896 420.456C140.715 420.819 140.397 421 139.944 421H97.648ZM133.008 379.792C132.827 379.973 132.6 380.064 132.328 380.064H104.992C104.72 380.064 104.493 379.973 104.312 379.792L99.688 374.896C99.2347 374.533 99.28 374.08 99.824 373.536L105.264 368.504C105.445 368.323 105.672 368.232 105.944 368.232H133.28C133.552 368.232 133.779 368.323 133.96 368.504L138.584 373.536C138.947 373.989 138.901 374.443 138.448 374.896L133.008 379.792ZM198.46 338.992H170.716C170.444 338.992 170.217 338.901 170.036 338.72L163.236 331.24C162.873 330.787 162.919 330.333 163.372 329.88L166.092 327.568C166.273 327.387 166.5 327.296 166.772 327.296H209.068C209.521 327.296 209.793 327.477 209.884 327.84C210.065 328.203 209.975 328.565 209.612 328.928L198.46 338.992ZM158.476 373.536C158.023 373.989 157.569 373.989 157.116 373.536L154.94 370.952C154.759 370.771 154.668 370.544 154.668 370.272L157.66 335.592C157.751 335.501 157.796 335.411 157.796 335.32C157.887 335.139 157.977 335.003 158.068 334.912L160.652 332.464C161.287 332.011 161.74 332.011 162.012 332.464L168.812 339.944C168.903 340.035 168.948 340.261 168.948 340.624L166.772 365.376C166.772 365.648 166.681 365.875 166.5 366.056L158.476 373.536ZM193.972 379.792C193.791 379.973 193.564 380.064 193.292 380.064H165.82C165.548 380.064 165.321 379.973 165.14 379.792L160.652 374.76C160.289 374.307 160.335 373.853 160.788 373.4L166.092 368.504C166.273 368.323 166.5 368.232 166.772 368.232H194.244C194.516 368.232 194.743 368.323 194.924 368.504L199.412 373.4C199.865 373.853 199.82 374.307 199.276 374.76L193.972 379.792ZM199.412 415.832C198.959 416.285 198.551 416.285 198.188 415.832L191.388 408.352C191.207 408.171 191.116 407.944 191.116 407.672L193.292 382.92C193.292 382.648 193.383 382.421 193.564 382.24L201.724 374.76C202.268 374.397 202.676 374.397 202.948 374.76L205.396 377.072C205.487 377.163 205.532 377.389 205.532 377.752L202.54 412.568C202.54 412.931 202.404 413.157 202.132 413.248L199.412 415.832ZM194.108 420.728C193.927 420.909 193.7 421 193.428 421H151.132C150.679 421 150.361 420.819 150.18 420.456C150.089 420.093 150.271 419.731 150.724 419.368L161.332 409.576C161.513 409.395 161.74 409.304 162.012 409.304L164.732 409.168H189.348C189.62 409.168 189.847 409.259 190.028 409.44L196.828 416.92C197.281 417.373 197.236 417.781 196.692 418.144L194.108 420.728Z" fill="white"/>
</g>
<defs>
<filter id="filter0_d_3_14" x="256" y="219" width="172.312" height="222.485" filterUnits="userSpaceOnUse" color-interpolation-filters="sRGB">
<feFlood flood-opacity="0" result="BackgroundImageFix"/>
<feColorMatrix in="SourceAlpha" type="matrix" values="0 0 0 0 0 0 0 0 0 0 0 0 0 0 0 0 0 0 127 0" result="hardAlpha"/>
<feOffset dx="4" dy="4"/>
<feGaussianBlur stdDeviation="2"/>
<feComposite in2="hardAlpha" operator="out"/>
<feColorMatrix type="matrix" values="0 0 0 0 0 0 0 0 0 0 0 0 0 0 0 0 0 0 0.25 0"/>
<feBlend mode="normal" in2="BackgroundImageFix" result="effect1_dropShadow_3_14"/>
<feBlend mode="normal" in="SourceGraphic" in2="effect1_dropShadow_3_14" result="shape"/>
</filter>
<filter id="filter1_d_3_14" x="83.924" y="76.872" width="349.795" height="66.38" filterUnits="userSpaceOnUse" color-interpolation-filters="sRGB">
<feFlood flood-opacity="0" result="BackgroundImageFix"/>
<feColorMatrix in="SourceAlpha" type="matrix" values="0 0 0 0 0 0 0 0 0 0 0 0 0 0 0 0 0 0 127 0" result="hardAlpha"/>
<feOffset dx="4" dy="4"/>
<feGaussianBlur stdDeviation="2"/>
<feComposite in2="hardAlpha" operator="out"/>
<feColorMatrix type="matrix" values="0 0 0 0 0 0 0 0 0 0 0 0 0 0 0 0 0 0 0.25 0"/>
<feBlend mode="normal" in2="BackgroundImageFix" result="effect1_dropShadow_3_14"/>
<feBlend mode="normal" in="SourceGraphic" in2="effect1_dropShadow_3_14" result="shape"/>
</filter>
<filter id="filter2_d_3_14" x="89.352" y="190.888" width="128.804" height="238.112" filterUnits="userSpaceOnUse" color-interpolation-filters="sRGB">
<feFlood flood-opacity="0" result="BackgroundImageFix"/>
<feColorMatrix in="SourceAlpha" type="matrix" values="0 0 0 0 0 0 0 0 0 0 0 0 0 0 0 0 0 0 127 0" result="hardAlpha"/>
<feOffset dx="4" dy="4"/>
<feGaussianBlur stdDeviation="2"/>
<feComposite in2="hardAlpha" operator="out"/>
<feColorMatrix type="matrix" values="0 0 0 0 0 0 0 0 0 0 0 0 0 0 0 0 0 0 0.25 0"/>
<feBlend mode="normal" in2="BackgroundImageFix" result="effect1_dropShadow_3_14"/>
<feBlend mode="normal" in="SourceGraphic" in2="effect1_dropShadow_3_14" result="shape"/>
</filter>
</defs>
</svg>
