<svg width="512" height="512" viewBox="0 0 512 512" fill="none" xmlns="http://www.w3.org/2000/svg">
<rect width="512" height="512" rx="62" fill="#FF7F50"/>
<g clip-path="url(#clip0_1_47)">
<path d="M151 205L282.5 67.5L332.904 118.048L201.617 253.292L151 205Z" fill="#FFCC75"/>
<path d="M124.602 231.484C132.59 222.781 146.079 222.085 154.919 229.92L173.56 246.443C183.684 255.416 183.192 271.372 172.535 279.705V279.705C164.305 286.141 152.653 285.782 144.835 278.852L126.193 262.33C117.134 254.3 116.417 240.403 124.602 231.484V231.484Z" fill="#F2484B"/>
<path d="M150.421 203.6L125.568 229.202L176.765 278.898L201.617 253.296L150.421 203.6Z" fill="#082947"/>
<path d="M319.351 55.1739L356.999 42.0011L344.952 80.0251L323.868 76.1323L319.351 55.1739Z" fill="#082947"/>
<path d="M332.904 118.048L344.952 80.0251L319.351 55.1739L281.702 68.3468L332.904 118.048Z" fill="#F2EBD9"/>
</g>
<mask id="path-7-inside-1_1_47" fill="white">
<path d="M358.376 314.798C358.376 314.798 358.376 314.798 358.376 314.798L405.201 131.452C407.891 120.922 417.376 113.555 428.244 113.555H450.184C458.919 113.555 466 106.473 466 97.7383V97.7383C466 89.0031 458.919 81.9219 450.184 81.9219H404.621C393.196 81.9219 383.225 89.6663 380.398 100.735L377.896 110.534C375.067 121.61 365.086 129.356 353.655 129.348L76.1389 129.149C60.4802 129.138 48.6657 143.361 51.5482 158.752L76.9539 294.4C79.1689 306.227 89.4944 314.798 101.527 314.798H358.376C358.376 314.798 358.376 314.798 358.376 314.798V314.798ZM332.847 160.966C349.156 160.978 361.087 176.35 357.051 192.152L338.612 264.352C335.785 275.422 325.814 283.166 314.389 283.166H127.785C115.752 283.166 105.427 274.595 103.212 262.768L89.6602 190.412C86.7776 175.021 98.5922 160.798 114.251 160.81L332.847 160.966Z"/>
</mask>
<path d="M358.376 314.798C358.376 314.798 358.376 314.798 358.376 314.798L405.201 131.452C407.891 120.922 417.376 113.555 428.244 113.555H450.184C458.919 113.555 466 106.473 466 97.7383V97.7383C466 89.0031 458.919 81.9219 450.184 81.9219H404.621C393.196 81.9219 383.225 89.6663 380.398 100.735L377.896 110.534C375.067 121.61 365.086 129.356 353.655 129.348L76.1389 129.149C60.4802 129.138 48.6657 143.361 51.5482 158.752L76.9539 294.4C79.1689 306.227 89.4944 314.798 101.527 314.798H358.376C358.376 314.798 358.376 314.798 358.376 314.798V314.798ZM332.847 160.966C349.156 160.978 361.087 176.35 357.051 192.152L338.612 264.352C335.785 275.422 325.814 283.166 314.389 283.166H127.785C115.752 283.166 105.427 274.595 103.212 262.768L89.6602 190.412C86.7776 175.021 98.5922 160.798 114.251 160.81L332.847 160.966Z" fill="#F5F5F5"/>
<path d="M89.6602 190.412L87.6944 190.78L89.6602 190.412ZM114.251 160.81L114.249 162.81L114.251 160.81ZM103.212 262.768L101.246 263.137L103.212 262.768ZM357.051 192.152L358.989 192.647L357.051 192.152ZM76.1389 129.149L76.1375 131.149L76.1389 129.149ZM377.896 110.534L379.833 111.029L377.896 110.534ZM380.398 100.735L378.46 100.24L380.398 100.735ZM405.201 131.452L403.264 130.957L405.201 131.452ZM358.376 314.798L356.438 314.303L358.376 314.798ZM360.314 315.293L407.139 131.947L403.264 130.957L356.438 314.303L360.314 315.293ZM428.244 115.555H450.184V111.555H428.244V115.555ZM450.184 79.9219H404.621V83.9219H450.184V79.9219ZM378.46 100.24L375.958 110.039L379.833 111.029L382.336 101.23L378.46 100.24ZM353.657 127.348L76.1403 127.149L76.1375 131.149L353.654 131.348L353.657 127.348ZM49.5824 159.12L74.9881 294.768L78.9197 294.032L53.5141 158.383L49.5824 159.12ZM101.527 316.798H358.376V312.798H101.527V316.798ZM355.114 191.657L336.674 263.858L340.55 264.847L358.989 192.647L355.114 191.657ZM314.389 281.166H127.785V285.166H314.389V281.166ZM105.178 262.4L91.626 190.044L87.6944 190.78L101.246 263.137L105.178 262.4ZM114.249 162.81L332.845 162.966L332.848 158.966L114.252 158.81L114.249 162.81ZM91.626 190.044C88.9741 175.884 99.8434 162.799 114.249 162.81L114.252 158.81C97.3409 158.798 84.5812 174.158 87.6944 190.78L91.626 190.044ZM127.785 281.166C116.715 281.166 107.216 273.281 105.178 262.4L101.246 263.137C103.638 275.909 114.79 285.166 127.785 285.166V281.166ZM336.674 263.858C334.073 274.041 324.9 281.166 314.389 281.166V285.166C326.728 285.166 337.497 276.802 340.55 264.847L336.674 263.858ZM358.989 192.647C363.348 175.581 350.462 158.979 332.848 158.966L332.845 162.966C347.85 162.977 358.827 177.12 355.114 191.657L358.989 192.647ZM358.376 316.798C357.139 316.798 356.376 315.766 356.376 314.798H360.376C360.376 313.83 359.612 312.798 358.376 312.798V316.798ZM74.9881 294.768C77.3803 307.541 88.5318 316.798 101.527 316.798V312.798C90.457 312.798 80.9576 304.913 78.9197 294.032L74.9881 294.768ZM76.1403 127.149C59.229 127.137 46.4692 142.497 49.5824 159.12L53.5141 158.383C50.8621 144.224 61.7315 131.139 76.1375 131.149L76.1403 127.149ZM375.958 110.039C373.355 120.229 364.173 127.355 353.657 127.348L353.654 131.348C365.999 131.357 376.778 122.991 379.833 111.029L375.958 110.039ZM404.621 79.9219C392.282 79.9219 381.514 88.2859 378.46 100.24L382.336 101.23C384.937 91.0467 394.11 83.9219 404.621 83.9219V79.9219ZM468 97.7383C468 87.8985 460.023 79.9219 450.184 79.9219V83.9219C457.814 83.9219 464 90.1077 464 97.7383H468ZM450.184 115.555C460.023 115.555 468 107.578 468 97.7383H464C464 105.369 457.814 111.555 450.184 111.555V115.555ZM407.139 131.947C409.602 122.303 418.29 115.555 428.244 115.555V111.555C416.462 111.555 406.179 119.542 403.264 130.957L407.139 131.947ZM356.438 314.303C357.02 312.024 360.376 312.446 360.376 314.798H356.376C356.376 317.151 359.732 317.573 360.314 315.293L356.438 314.303Z" fill="#F5F5F5" mask="url(#path-7-inside-1_1_47)"/>
<path d="M315.073 430.079C342.966 430.079 365.659 407.385 365.659 379.492C365.659 351.599 342.966 328.907 315.073 328.907H124.485C96.592 328.907 73.8987 351.599 73.8987 379.492C73.8987 407.385 96.5916 430.079 124.485 430.079C152.379 430.079 175.071 407.385 175.071 379.492C175.071 372.793 173.759 366.396 171.384 360.539H268.175C265.799 366.396 264.487 372.793 264.487 379.492C264.487 407.385 287.18 430.079 315.073 430.079ZM143.438 379.492C143.438 389.944 134.936 398.446 124.485 398.446C114.034 398.446 105.532 389.944 105.532 379.492C105.532 369.042 114.034 360.539 124.485 360.539C134.936 360.539 143.438 369.042 143.438 379.492ZM334.027 379.492C334.027 389.944 325.525 398.446 315.074 398.446C304.623 398.446 296.121 389.944 296.121 379.492C296.121 369.042 304.623 360.539 315.074 360.539C325.525 360.539 334.027 369.042 334.027 379.492Z" fill="#F5F5F5"/>
<defs>
<clipPath id="clip0_1_47">
<rect width="272.029" height="272.029" fill="white" transform="translate(361.044 313.999) rotate(179.148)"/>
</clipPath>
</defs>
</svg>
