<svg width="2500" height="2500" viewBox="0 0 2500 2500" fill="none" xmlns="http://www.w3.org/2000/svg">
<g clip-path="url(#clip0_1_23)">
<path fill-rule="evenodd" clip-rule="evenodd" d="M0 0H2500V2500H0V0Z" fill="#F5F5F5"/>
<path fill-rule="evenodd" clip-rule="evenodd" d="M110.295 1663.07H186.103V1364.47L303 1624.88C316.877 1656.11 335.411 1667.11 372.44 1667.11C409.481 1667.11 428.002 1656.11 441.88 1624.88L558.776 1364.47V1663.07H634.001V1365.04C634.001 1336.12 622.419 1322.2 598.697 1314.68C541.41 1296.74 502.63 1312.37 485.277 1351.15L370.702 1607.51L259.603 1351.15C242.82 1312.37 203.47 1296.74 146.182 1314.68C121.877 1322.2 110.308 1336.11 110.308 1365.04V1663.07H110.295V1663.07ZM697.073 1420.01H772.298V1584.36C771.727 1593.61 775.19 1614.45 816.862 1615.03C837.691 1615.59 979.464 1615.03 980.618 1615.03V1419.42H1056.43C1057 1419.42 1056.43 1686.19 1056.43 1687.35C1057 1753.32 974.834 1767.2 937.221 1768.36H698.811V1717.44C698.811 1717.44 936.651 1718.03 937.221 1717.44C985.832 1712.81 980.047 1688.52 980.047 1680.41V1660.73H819.754C745.1 1659.59 697.644 1627.16 697.073 1589.55C697.073 1586.09 698.811 1421.76 697.073 1420.01V1420.01ZM2322.57 1230.78C2276.3 1229.62 2240.98 1233.67 2210.31 1246.98C2201.64 1250.45 2188.32 1250.45 2186.6 1261.45C2191.23 1266.06 2192.37 1273.59 2195.85 1279.97C2203.37 1291.56 2215.53 1307.16 2226.52 1315.26C2238.1 1324.54 2250.25 1333.78 2262.98 1341.89C2286.13 1355.77 2311.59 1363.29 2332.99 1377.21C2346.31 1385.29 2359.03 1395.73 2371.77 1404.98C2377.54 1409.61 2382.18 1416.56 2389.71 1419.44V1418.3C2385.66 1413.08 2384.49 1405.56 2381.02 1399.75L2363.66 1382.4C2346.89 1360.41 2325.47 1340.72 2302.89 1324.54C2284.95 1311.8 2244.44 1293.86 2236.92 1273.03C2236.34 1272.45 2235.75 1272.45 2235.75 1271.87C2248.49 1270.12 2263.55 1265.51 2275.12 1262.59C2294.81 1257.41 2312.73 1258.55 2332.98 1253.35C2342.25 1250.44 2351.5 1248.13 2360.77 1245.24V1240.03C2350.35 1229.61 2343.42 1215.15 2331.85 1205.89C2302.34 1180.43 2269.92 1155.54 2236.93 1134.71C2218.41 1122.56 2195.85 1115.04 2176.18 1105.21C2169.8 1102.31 2158.22 1100.58 2153.62 1094.79C2143.18 1082.05 2137.99 1065.27 2129.88 1050.23C2112.9 1017.22 2097.08 983.635 2082.44 949.529C2072.61 926.962 2065.64 904.395 2053.52 883.552C1993.32 785.177 1929.08 725.58 1828.98 667.126C1807.58 654.973 1782.12 649.772 1754.91 643.404C1740.45 642.237 1725.99 641.666 1711.52 640.499C1702.83 637.023 1693.58 626.038 1684.89 620.824C1651.91 599.994 1566.84 554.276 1542.52 614.456C1526.89 652.068 1565.67 689.109 1579.55 708.214C1589.41 721.521 1601.53 736.579 1608.5 751.611C1613.1 761.442 1613.69 771.286 1617.74 781.701C1627.58 807.744 1635.68 836.096 1647.83 859.818C1654.19 871.97 1661.13 884.706 1669.23 895.705C1673.86 902.073 1682.55 904.965 1683.7 915.38C1675.59 926.949 1675.03 944.316 1670.4 958.777C1650.14 1024.17 1657.67 1104.61 1687.76 1153.21C1697.03 1167.67 1718.43 1199.5 1748.53 1187.36C1774.58 1176.36 1768.78 1143.95 1776.3 1114.44C1778.05 1108.07 1776.88 1103.44 1780.35 1098.81V1099.97C1787.87 1116.16 1795.98 1131.79 1804.08 1147.41C1821.43 1175.77 1852.69 1205.86 1879.32 1225.53C1892.61 1235.94 1903.61 1253.89 1921.55 1259.66V1258.5H1919.82C1916.35 1253.31 1911.13 1250.99 1907.09 1246.93C1896.67 1236.51 1885.1 1223.78 1876.41 1212.21C1852.7 1179.79 1831.29 1143.92 1811.62 1106.88C1802.34 1088.94 1794.24 1069.27 1786.74 1051.33C1783.82 1044.39 1783.82 1033.98 1777.47 1029.92C1768.78 1043.22 1756.65 1054.22 1749.67 1069.85C1739.26 1094.74 1737.53 1125.4 1734.07 1156.66C1731.74 1157.81 1732.32 1157.23 1731.15 1158.39C1712.66 1153.76 1706.28 1134.66 1699.34 1118.46C1682.57 1077.37 1679.08 1011.41 1694.12 963.952C1698.17 951.799 1716.13 913.603 1708.61 902.034C1705.11 891.036 1694.12 884.097 1687.77 875.42C1679.66 865.005 1672.14 851.115 1666.37 838.962C1652.49 806.551 1646.11 770.676 1631.05 738.278C1623.53 722.649 1611.97 707.021 1602.13 693.714C1591.13 678.085 1578.98 667.1 1570.31 648.579C1567.42 642.211 1563.38 631.796 1567.42 624.844C1569.15 620.214 1570.9 618.476 1575.5 616.738C1583.02 610.954 1604.45 619.06 1612.53 621.939C1633.37 631.199 1651.31 639.306 1669.25 651.458C1677.94 657.243 1686.63 668.228 1697.04 671.133H1708.62C1727.14 675.18 1747.96 672.288 1765.31 677.502C1795.99 686.749 1823.76 701.223 1848.66 717.435C1925.04 765.463 1986.97 833.748 2029.78 915.341C2036.72 928.648 2039.61 940.801 2045.41 954.691C2057.58 983.056 2073.18 1011.98 2085.33 1039.18C2096.91 1066.96 2109.07 1094.74 2125.84 1117.29C2135.11 1129.45 2169.82 1135.81 2185.44 1142.17C2196.44 1146.8 2214.37 1152 2224.81 1158.38C2245.05 1169.95 2264.14 1184.42 2283.25 1197.73C2292.48 1204.16 2321.41 1218.63 2322.57 1230.78V1230.78Z" fill="#00678C"/>
<path fill-rule="evenodd" clip-rule="evenodd" d="M1732.32 727.915C1724.33 727.918 1716.37 728.893 1708.61 730.82V731.975H1710.34C1714.97 741.235 1723.07 747.603 1728.86 755.696C1732.9 764.957 1737.55 774.217 1741.59 783.478L1743.32 781.74C1751.42 776.539 1754.9 767.278 1754.9 752.817C1752.01 749.341 1751.42 745.295 1748.54 741.235C1744.49 735.438 1737.55 732.545 1732.32 727.915Z" fill="#00678C"/>
<path fill-rule="evenodd" clip-rule="evenodd" d="M1114.88 1663.07H1331.88C1357.34 1663.07 1382.21 1657.86 1401.89 1648.59C1434.29 1633.57 1450.5 1613.3 1450.5 1586.68V1531.13C1450.5 1509.73 1431.98 1488.9 1396.7 1475.58C1377.6 1468.06 1354.45 1464.58 1331.88 1464.58H1240.45C1209.78 1464.58 1195.32 1455.31 1191.84 1435.08C1191.26 1432.77 1191.26 1430.45 1191.26 1428.14V1393.99C1191.26 1391.68 1191.26 1389.94 1191.84 1387.64C1195.32 1372.01 1203.41 1367.38 1230.04 1365.07C1232.35 1365.07 1235.24 1364.48 1237.56 1364.48H1453.4V1314.15H1241.04C1210.36 1314.15 1194.74 1316.46 1180.27 1320.5C1135.14 1334.97 1115.46 1356.96 1115.46 1395.74V1439.72C1115.46 1473.87 1154.23 1502.79 1218.47 1509.73C1225.99 1509.73 1232.93 1510.32 1240.45 1510.32H1318.58C1321.48 1510.32 1324.36 1510.32 1326.66 1510.9C1350.98 1513.21 1360.81 1517.26 1368.34 1525.92C1372.38 1530.55 1374.13 1534.61 1374.13 1539.82V1583.8C1374.13 1589.02 1370.66 1595.97 1363.14 1601.74C1356.75 1607.54 1345.76 1611.01 1331.29 1612.15C1328.4 1612.15 1326.11 1612.74 1323.19 1612.74H1114.88V1663.07ZM1921.55 1575.09C1921.55 1627.17 1959.74 1656.1 2037.87 1661.89C2044.81 1662.48 2052.34 1663.06 2059.27 1663.06H2256.03V1612.7H2058.11C2013.54 1612.7 1996.77 1601.7 1996.77 1575.09V1314.12H1921.54V1575.09H1921.55ZM1498.54 1577.98V1398.61C1498.54 1352.89 1530.35 1325.12 1594.01 1316.43C1600.39 1315.26 1607.91 1315.26 1614.27 1315.26H1757.77C1764.71 1315.26 1771.09 1315.26 1778.61 1316.43C1841.68 1325.12 1874.08 1352.89 1874.08 1398.61V1577.98C1874.08 1615.03 1860.2 1634.7 1828.94 1647.43L1903.6 1714.56H1815.65L1755.46 1660.74L1694.68 1664.22H1614.26C1600.38 1664.22 1585.9 1662.49 1569.69 1657.86C1521.69 1645.11 1498.54 1619.65 1498.54 1577.98V1577.98ZM1580.13 1573.38C1580.13 1576.27 1580.72 1578.56 1581.3 1581.48C1585.93 1602.3 1605.59 1613.88 1635.1 1613.88H1703.98L1640.91 1557.16H1728.86L1783.82 1606.36C1793.68 1601.14 1800.62 1593.04 1802.93 1582.62C1803.51 1579.73 1803.51 1577.43 1803.51 1575.1V1402.67C1803.51 1400.92 1803.51 1398.62 1802.93 1396.29C1798.3 1376.62 1778.63 1365.64 1749.69 1365.64H1635.11C1601.55 1365.64 1580.15 1380.1 1580.15 1402.67V1573.38H1580.13V1573.38ZM2290.76 1663.07H2301.76V1621.4H2316.8V1612.71H2275.71V1621.4H2290.76V1663.07ZM2375.24 1663.07H2385.07V1612.71H2370.03L2356.74 1647.45L2343.44 1612.71H2327.81V1663.07H2338.23V1624.88L2352.69 1663.07H2360.21L2374.67 1624.88H2375.26V1663.07H2375.24Z" fill="#CE8B2C"/>
</g>
<defs>
<clipPath id="clip0_1_23">
<rect width="2500" height="2500" rx="200" fill="white"/>
</clipPath>
</defs>
</svg>
