<svg xmlns="http://www.w3.org/2000/svg" xmlns:xlink="http://www.w3.org/1999/xlink" width="442.37" height="170.375" viewBox="0 0 442.37 170.375">
  <defs>
    <clipPath id="clip-path">
      <path id="Trazado_6" data-name="Trazado 6" d="M239.03,226.6,196.9,250.922a5.085,5.085,0,0,0-2.546,4.406V304A5.084,5.084,0,0,0,196.9,308.4l42.133,24.336a5.1,5.1,0,0,0,5.09,0L286.249,308.4a5.1,5.1,0,0,0,2.54-4.406V255.328a5.085,5.085,0,0,0-2.55-4.406L244.119,226.6a5.121,5.121,0,0,0-5.1,0"/>
    </clipPath>
    <linearGradient id="linear-gradient" x1="-0.847" y1="-1.034" x2="-0.838" y2="-1.034" gradientUnits="objectBoundingBox">
      <stop offset="0.3" stop-color="#3e863d"/>
      <stop offset="0.5" stop-color="#55934f"/>
      <stop offset="0.8" stop-color="#5aad45"/>
    </linearGradient>
    <clipPath id="clip-path-2">
      <path id="Trazado_8" data-name="Trazado 8" d="M195.4,307.086a5.1,5.1,0,0,0,1.5,1.316l36.14,20.875,6.02,3.46a5.107,5.107,0,0,0,2.934.665,5.2,5.2,0,0,0,1-.183l44.434-81.36a5.039,5.039,0,0,0-1.184-.94l-27.586-15.93-14.582-8.39a5.318,5.318,0,0,0-1.32-.53Zm0,0"/>
    </clipPath>
    <linearGradient id="linear-gradient-2" x1="-0.742" y1="-0.932" x2="-0.737" y2="-0.932" gradientUnits="objectBoundingBox">
      <stop offset="0.57" stop-color="#3e863d"/>
      <stop offset="0.72" stop-color="#619857"/>
      <stop offset="1" stop-color="#76ac64"/>
    </linearGradient>
    <clipPath id="clip-path-3">
      <path id="Trazado_10" data-name="Trazado 10" d="M241.066,225.953a5.139,5.139,0,0,0-2.035.652l-42.01,24.247,45.3,82.51a5.052,5.052,0,0,0,1.81-.624l42.13-24.336a5.105,5.105,0,0,0,2.46-3.476l-46.18-78.89a5.29,5.29,0,0,0-1.03-.1c-.14,0-.28.007-.42.02"/>
    </clipPath>
    <linearGradient id="linear-gradient-3" x1="-2.148" y1="-2.103" x2="-2.138" y2="-2.103" gradientUnits="objectBoundingBox">
      <stop offset="0.16" stop-color="#6bbf47"/>
      <stop offset="0.38" stop-color="#79b461"/>
      <stop offset="0.47" stop-color="#75ac64"/>
      <stop offset="0.7" stop-color="#659e5a"/>
      <stop offset="0.9" stop-color="#3e863d"/>
    </linearGradient>
  </defs>
  <g id="nodejs" transform="translate(0 0)">
    <path id="Trazado_3" data-name="Trazado 3" d="M94.936,90.55a5.115,5.115,0,0,0-2.558-4.445L50.022,61.735a4.946,4.946,0,0,0-2.328-.67h-.438a5.032,5.032,0,0,0-2.34.67L2.562,86.105A5.154,5.154,0,0,0,0,90.555L.093,156.2a2.52,2.52,0,0,0,1.27,2.21,2.42,2.42,0,0,0,2.54,0l25.18-14.42a5.164,5.164,0,0,0,2.56-4.44V108.88a5.1,5.1,0,0,1,2.555-4.43l10.72-6.174a5.086,5.086,0,0,1,2.56-.688,5,5,0,0,1,2.544.687l10.715,6.172a5.1,5.1,0,0,1,2.56,4.43V139.54a5.181,5.181,0,0,0,2.565,4.44l25.164,14.41a2.5,2.5,0,0,0,2.56,0,2.568,2.568,0,0,0,1.268-2.21ZM294.8,124.726a1.271,1.271,0,0,1-.64,1.106l-14.548,8.386a1.282,1.282,0,0,1-1.277,0l-14.55-8.386a1.267,1.267,0,0,1-.64-1.106v-16.8a1.287,1.287,0,0,1,.63-1.11l14.54-8.4a1.292,1.292,0,0,1,1.29,0l14.55,8.4a1.275,1.275,0,0,1,.64,1.11Zm3.93-124.4a2.558,2.558,0,0,0-3.806,2.237v65a1.789,1.789,0,0,1-2.684,1.55L281.634,63a5.108,5.108,0,0,0-5.112,0l-42.37,24.453a5.105,5.105,0,0,0-2.56,4.42v48.92a5.121,5.121,0,0,0,2.56,4.43l42.37,24.47a5.137,5.137,0,0,0,5.117,0l42.37-24.48a5.128,5.128,0,0,0,2.56-4.43V18.863a5.128,5.128,0,0,0-2.63-4.47ZM439.827,107.488a5.116,5.116,0,0,0,2.543-4.422V91.21a5.119,5.119,0,0,0-2.547-4.425l-42.1-24.44a5.113,5.113,0,0,0-5.13,0l-42.36,24.45a5.107,5.107,0,0,0-2.56,4.43v48.9a5.133,5.133,0,0,0,2.58,4.45l42.09,23.99a5.1,5.1,0,0,0,5.02.03l25.46-14.15a2.554,2.554,0,0,0,.02-4.45l-42.62-24.46a2.538,2.538,0,0,1-1.29-2.21v-15.34a2.539,2.539,0,0,1,1.28-2.216l13.26-7.65a2.528,2.528,0,0,1,2.55,0l13.27,7.65a2.55,2.55,0,0,1,1.28,2.21v12.06a2.551,2.551,0,0,0,3.84,2.21Zm0,0" fill="#333" fill-rule="evenodd"/>
    <path id="Trazado_4" data-name="Trazado 4" d="M394.538,105.2a.971.971,0,0,1,.98,0l8.13,4.69a.982.982,0,0,1,.49.85v9.39a.982.982,0,0,1-.49.85l-8.13,4.69a.971.971,0,0,1-.98,0l-8.125-4.69a.979.979,0,0,1-.5-.85v-9.39a.969.969,0,0,1,.49-.85Zm0,0" fill="#689f63" fill-rule="evenodd"/>
    <g id="Grupo_1" data-name="Grupo 1" transform="translate(-78.306 -164.016)" clip-path="url(#clip-path)">
      <path id="Trazado_5" data-name="Trazado 5" d="M331.363,246.793,212.648,188.6l-60.87,124.174L270.49,370.97Zm0,0" fill="url(#linear-gradient)"/>
    </g>
    <g id="Grupo_2" data-name="Grupo 2" transform="translate(-78.306 -164.016)" clip-path="url(#clip-path-2)">
      <path id="Trazado_7" data-name="Trazado 7" d="M144.07,264,227.9,377.457l110.86-81.906L254.925,182.1Zm0,0" fill="url(#linear-gradient-2)"/>
    </g>
    <g id="Grupo_3" data-name="Grupo 3" transform="translate(-78.306 -164.016)" clip-path="url(#clip-path-3)">
      <path id="Trazado_9" data-name="Trazado 9" d="M197.02,225.934v107.43H288.7V225.934Zm0,0" fill="url(#linear-gradient-3)"/>
    </g>
  </g>
</svg>
