<svg xmlns="http://www.w3.org/2000/svg" width="512" height="512" viewBox="0 0 512 512">
  <g id="Grupo_1" data-name="Grupo 1" transform="translate(-154 -164.988)">
    <g id="XMLID_1027_" transform="translate(146.5 142)">
      <path id="XMLID_1030_" d="M221.772,202.666H387.226l18.16-158.029H203.612Z" transform="translate(-79.698 10.363)" fill="#ff9811"/>
      <path id="XMLID_1029_" d="M77.326,355l6,30,149.991-30H77.326Z" transform="translate(63.138 149.988)" fill="#ff9811"/>
      <path id="XMLID_1030_2" data-name="XMLID_1030_" d="M155.878,512.561,377.5,469.336,318.663,31.988l-154.5,31.461,125.443,8.876Z" transform="translate(142 -9)" fill="#ff9811"/>
      <path id="XMLID_1031_" d="M211.5,197.5c-33.746,0-61.2-30.278-61.2-67.5V100h40.8v30c0,12.406,9.151,22.5,20.4,22.5V55H7.5V504.988h204Z" transform="translate(0 0)" fill="#ffe98f"/>
      <path id="XMLID_1032_" d="M383.8,482.733V55H225.39v75c0,37.22-30.455,67.5-67.89,67.5V504.988H383.8Z" transform="translate(54 0)" fill="#ffda44"/>
      <path id="XMLID_1033_" d="M178.5,129.679V55h-21v97.082C169.079,152.082,178.5,142.032,178.5,129.679Z" transform="translate(53.583)" fill="#ffda44"/>
    </g>
  </g>
</svg>
