<svg xmlns="http://www.w3.org/2000/svg" width="160" height="160.003" viewBox="0 0 160 160.003">
  <g id="postman" transform="translate(0.002 0.003)">
    <path id="Trazado_1" data-name="Trazado 1" d="M143.315,31.1a80,80,0,1,0-14.4,112.2,80,80,0,0,0,14.4-112.2Z" transform="translate(0 0)" fill="#ff6c37"/>
    <path id="Trazado_2" data-name="Trazado 2" d="M68.751,22.653l-33.731,34-9.532-9.8c33.2-33.2,36.531-30.2,43.266-24.2Z" transform="translate(38.231 28.32)" fill="#fff"/>
    <path id="Trazado_3" data-name="Trazado 3" d="M35.742,58.306a1.2,1.2,0,0,1-.8-.332l-9.6-9.6a1.2,1.2,0,0,1,0-1.667c32.731-32.731,37.2-31.2,44.931-24.2a1.067,1.067,0,0,1,.4.867.938.938,0,0,1-.332.867L36.609,57.976a1.264,1.264,0,0,1-.867.332ZM27.875,47.574l7.867,7.867,32-32a7.2,7.2,0,0,0-9.467-1.6C52.474,24.442,43.142,32.374,27.875,47.574Z" transform="translate(37.508 27.596)" fill="#ff6c37"/>
    <path id="Trazado_4" data-name="Trazado 4" d="M38.687,63.388l-9.2-9.4L63.218,20.654c9.067,8.867-4.4,23.667-24.532,42.731Z" transform="translate(44.231 30.984)" fill="#fff"/>
    <path id="Trazado_5" data-name="Trazado 5" d="M39.35,65.552a1.4,1.4,0,0,1-.8-.332l-9.4-9.2a1.4,1.4,0,0,1,0-1.067,1.292,1.292,0,0,1,0-.867L62.882,20.354a1.265,1.265,0,0,1,1.732,0,10.34,10.34,0,0,1,3.332,7.932c0,9-10.267,20.332-27.732,36.866a1.4,1.4,0,0,1-.867.4Zm-7.467-10.6,7.532,7.53c13.332-12.6,26.067-25.6,26.132-34.4a7.6,7.6,0,0,0-1.732-5.132Z" transform="translate(43.567 30.019)" fill="#ff6c37"/>
    <path id="Trazado_6" data-name="Trazado 6" d="M31,30.227l6.667,6.667a.4.4,0,0,1,0,.6l-14.067,3a1.334,1.334,0,0,1-1.2-2.267L30.6,30.1a.66.66,0,0,1,.4.132Z" transform="translate(32.984 45.144)" fill="#fff"/>
    <path id="Trazado_7" data-name="Trazado 7" d="M24,42.512a2.6,2.6,0,0,1-2.2-1.267,2.535,2.535,0,0,1,.467-3l8.132-8.2a1.6,1.6,0,0,1,2.132,0L39.2,36.712a1.47,1.47,0,0,1,.4,1.467,1.546,1.546,0,0,1-1.132,1.067l-14.067,3ZM31.464,32.38l-7.532,7.532L36.4,37.245ZM32.064,31.78Z" transform="translate(32.254 44.459)" fill="#ff6c37"/>
    <path id="Trazado_8" data-name="Trazado 8" d="M63.116,15.069a12.933,12.933,0,1,0-2.332,20.4L51.717,26.4Z" transform="translate(61.799 17.169)" fill="#fff"/>
    <path id="Trazado_9" data-name="Trazado 9" d="M54.735,39.171a14.146,14.146,0,0,1-9.89-24.064,14.275,14.275,0,0,1,20,0,1.132,1.132,0,0,1,.4.867,1.15,1.15,0,0,1-.4.867l-10.8,10.2,8.2,8.067a1.125,1.125,0,0,1,.333,1,1.2,1.2,0,0,1-.532.867,14.5,14.5,0,0,1-7.332,2.2Zm0-25.867A11.715,11.715,0,1,0,59.4,35.771L51.535,27.9a1.068,1.068,0,0,1,0-1.667l10.4-10.467a11.963,11.963,0,0,0-7.2-2.467Z" transform="translate(61.181 16.532)" fill="#ff6c37"/>
    <path id="Trazado_10" data-name="Trazado 10" d="M56.887,12.974l-11.4,11.332,9.067,9.067a13.8,13.8,0,0,0,2.532-1.867,13.333,13.333,0,0,0-.2-18.532Z" transform="translate(68.229 19.464)" fill="#fff"/>
    <path id="Trazado_11" data-name="Trazado 11" d="M55.193,35.175a1,1,0,0,1-.8-.332l-9.067-9.067a1.068,1.068,0,0,1,0-1.667L56.658,12.976a1.2,1.2,0,0,1,2,0,14,14,0,0,1,0,20,12.2,12.2,0,0,1-2.667,2.132,1.075,1.075,0,0,1-.8.067ZM47.861,24.911l7.532,7.532a12.8,12.8,0,0,0,1.467-1.2,11.8,11.8,0,0,0,3.467-8.332,11.45,11.45,0,0,0-2.867-7.6Z" transform="translate(67.387 18.662)" fill="#ff6c37"/>
    <path id="Trazado_12" data-name="Trazado 12" d="M65.471,21.74a4.87,4.87,0,0,0-6.667,0l-30.2,30.129,5,5.067,31.931-28a4.937,4.937,0,0,0-.068-7.2Z" transform="translate(42.911 30.633)" fill="#fff"/>
    <path id="Trazado_13" data-name="Trazado 13" d="M34.222,58.863a1.2,1.2,0,0,1-.8-.332l-5.067-5.067a1.2,1.2,0,0,1,0-1.667l30.2-30.067a6.136,6.136,0,0,1,10.467,4.532,6.276,6.276,0,0,1-2.067,4.4l-31.931,28a1.138,1.138,0,0,1-.8.2Zm-3.532-6.27,3.332,3.4L65.354,28.727a3.682,3.682,0,0,0,1.267-2.667,3.579,3.579,0,0,0-1.132-2.732,3.733,3.733,0,0,0-5.267,0Z" transform="translate(42.027 29.908)" fill="#ff6c37"/>
    <path id="Trazado_14" data-name="Trazado 14" d="M25.568,64.334a.675.675,0,0,0,0,.8l1.332,5.8a1.719,1.719,0,0,1-.83,1.75,1.625,1.625,0,0,1-1.9-.193l-9.132-8.8L43.5,35h9.867l6.667,6.667A151.345,151.345,0,0,1,25.568,64.334Z" transform="translate(22.551 52.502)" fill="#fff"/>
    <path id="Trazado_15" data-name="Trazado 15" d="M25.686,74.893a2.816,2.816,0,0,1-2-.867l-8.732-8.732a1.068,1.068,0,0,1,0-1.667L43.618,34.895a1.125,1.125,0,0,1,.6-.332h9.932a1.2,1.2,0,0,1,.8,0l6.667,6.667a1.064,1.064,0,0,1,.332.932,1.075,1.075,0,0,1-.4.867l-.532.467a163.319,163.319,0,0,1-34.2,21.932l1.267,5.4a2.875,2.875,0,0,1-2.732,3.532ZM17.554,64.426l7.865,7.932a.354.354,0,0,0,.532-.468l-1.332-5.8a1.86,1.86,0,0,1,1-2.132A163.894,163.894,0,0,0,58.95,42.492l-5.467-5.467H44.551ZM27.154,65.626Z" transform="translate(21.832 51.742)" fill="#ff6c37"/>
    <path id="Trazado_16" data-name="Trazado 16" d="M12.668,53.214l6.667-6.667L29.6,56.814,13.271,55.682a1.332,1.332,0,0,1-.6-2.465Z" transform="translate(18.051 69.821)" fill="#fff"/>
    <path id="Trazado_17" data-name="Trazado 17" d="M30.278,58.5,14.011,57.364a2.575,2.575,0,0,1-2.135-1.632,2.548,2.548,0,0,1,.535-2.635l6.667-6.667a1.2,1.2,0,0,1,1.667,0l10.2,10.2a1.129,1.129,0,0,1,0,1.332,1.267,1.267,0,0,1-.667.532ZM14.011,54.764l13.332.867L20.01,48.764Z" transform="translate(17.573 69.139)" fill="#ff6c37"/>
    <path id="Trazado_18" data-name="Trazado 18" d="M38.82,38.721,25.353,40.788l7.8-7.732Z" transform="translate(38.03 49.586)" fill="#fff"/>
    <path id="Trazado_19" data-name="Trazado 19" d="M26.125,42.74a1.141,1.141,0,0,1-1.067-.667,1.125,1.125,0,0,1,0-1.332l7.732-7.8a1.265,1.265,0,0,1,1.732,0l5.67,5.665a1.125,1.125,0,0,1,0,1.2,1.175,1.175,0,0,1-.932.867L25.927,42.74Zm7.8-7.267L29.592,39.8l7.467-1.132Z" transform="translate(37.258 48.897)" fill="#ff6c37"/>
    <path id="Trazado_20" data-name="Trazado 20" d="M37.259,38.72l-9.4,1.2a1.2,1.2,0,0,1-1.132-2l4.867-4.867Z" transform="translate(39.591 49.581)" fill="#fff"/>
    <path id="Trazado_21" data-name="Trazado 21" d="M28.335,67A2.466,2.466,0,0,1,26.2,65.732a2.4,2.4,0,0,1,.4-2.867L31.47,58A1.265,1.265,0,0,1,33.2,58l5.667,5.667a1.2,1.2,0,0,1-.732,2.067l-9.332,1.2Zm0-2.467,7.067-.867L32.27,60.532l-4,4Zm58-48.2a1,1,0,0,0-1.267-.4.925.925,0,0,0-.465.55.943.943,0,0,0,.065.717,2.868,2.868,0,0,1-.332,3,.846.846,0,0,0-.25.632.95.95,0,0,0,.25.632.725.725,0,0,0,.533,0,.875.875,0,0,0,.867-.267,4.6,4.6,0,0,0,.6-4.867Z" transform="translate(38.848 23.772)" fill="#ff6c37"/>
  </g>
</svg>
